<?xml version="1.0" encoding="utf-8"?>
<!-- Generator: Adobe Illustrator 16.0.0, SVG Export Plug-In . SVG Version: 6.00 Build 0)  -->
<!DOCTYPE svg PUBLIC "-//W3C//DTD SVG 1.1//EN" "http://www.w3.org/Graphics/SVG/1.1/DTD/svg11.dtd">
<svg version="1.1" id="Layer_1" xmlns="http://www.w3.org/2000/svg" xmlns:xlink="http://www.w3.org/1999/xlink" x="0px" y="0px"
	 width="242.4px" height="242.4px" viewBox="0 0 242.4 242.4" style="enable-background:new 0 0 242.4 242.4;" xml:space="preserve"
	>
<style type="text/css">
<![CDATA[
	.st0{fill-rule:evenodd;clip-rule:evenodd;fill:#FFFFFF;}
	.st1{fill:#40A2DA;}
]]>
</style>
<g>
	<ellipse class="st0" cx="121.2" cy="121.2" rx="115.4" ry="115.4"/>
	<path class="st1" d="M147.4,97.4c0,0-14.2-4.6-22.4,1.8l-0.1-8.1c1.2-1.8,7.8-7.6,10-9.2c2,3.2,7.9,8.6,14.8,5.4
		c10.7-4.9,10.1-14.4,23-17.1c0,0-12.3-14.8-31.5-8.3c0,0-9.7,3.4-8.3,13.6c0,0,7.2-4.6,11.8-6.7c10.1-4.8,20.6-1,20.6-1
		c1.3,0.7-0.6,0.7-0.6,0.7c-5.8-0.7-9.5,0.2-11.2,0.8c-8.7,2.8-14.9,7.3-14.9,7.3l0,0c-1.4,0.7-2.3,1-3.5,2l-1.1,0.6l-0.6,0.5
		c-0.8,0.7-4.4,2.4-8.7,6.9L124.7,75l-7.4,1.3l2.9,22.7c-3.2-1.5-9-3.2-17.3-1.6c0,0-31.5,3.1-20,39.9c0,0,8.8,48.4,38.8,39.9
		c0,0,3.5-2.3,8.4,0.4c0,0,20,7.3,29.9-22.3C160.1,155.4,178.5,104.7,147.4,97.4z M102.4,109.9c-0.5,0.4-11.9,8.1-6,20.8
		c0.7,1.5,0,3.3-1.5,4.1c-1.3,0.6-2.8,0.3-3.7-0.8c-0.1-0.2-0.3-0.4-0.4-0.6c-6.5-14,2.6-24.8,8.4-28.5c1.4-0.9,3.3-0.6,4.2,0.8
		C104.3,107.1,103.9,108.9,102.4,109.9z"/>
</g>
</svg>
