<?xml version="1.0" encoding="utf-8"?>
<!-- Generator: Adobe Illustrator 16.0.0, SVG Export Plug-In . SVG Version: 6.00 Build 0)  -->
<!DOCTYPE svg PUBLIC "-//W3C//DTD SVG 1.1//EN" "http://www.w3.org/Graphics/SVG/1.1/DTD/svg11.dtd">
<svg version="1.1" id="Layer_1" xmlns="http://www.w3.org/2000/svg" xmlns:xlink="http://www.w3.org/1999/xlink" x="0px" y="0px"
	 width="242.4px" height="242.4px" viewBox="0 0 242.4 242.4" style="enable-background:new 0 0 242.4 242.4;" xml:space="preserve"
	>
<style type="text/css">
<![CDATA[
	.st0{fill-rule:evenodd;clip-rule:evenodd;fill:#FFFFFF;}
	.st1{fill:#40A2DA;}
]]>
</style>
<g>
	<ellipse class="st0" cx="121.2" cy="121.2" rx="115.4" ry="115.4"/>
	<path class="st1" d="M143.1,128.3c-3.1-16.7-16.6-42.6-20.6-49.9l-0.8-0.5l-1.5-11l-5.4-0.3l-3.3,2.7l-0.3,4.5l8.6,6.9l-0.7-0.5
		c6,13,7.2,23.9,3.8,32.3c-3.7,9.1-11.9,12.1-12,12.1c-0.9,0.3-1.4,1.3-1.1,2.3c0.3,0.9,1.3,1.4,2.3,1.1c0.4-0.1,9.7-3.5,14.1-14.1
		c2-4.8,2.6-10.1,1.9-16.1c4.7,10.1,9.7,22.2,11.4,31.2c0.2,0.9,0.9,1.5,1.8,1.5c0.1,0,0.2,0,0.3,0
		C142.7,130.2,143.3,129.2,143.1,128.3z"/>
	<path class="st1" d="M86.7,122.6c-12.9,0-23.4,10.5-23.4,23.4c0,12.9,10.5,23.4,23.4,23.4c12.9,0,23.4-10.5,23.4-23.4
		C110.1,133.1,99.6,122.6,86.7,122.6z M84.8,135.2c-0.8,0.2-8,2.3-7.2,10.2c0.2,1.8-1.1,3.4-3,3.7c-0.1,0-0.3,0-0.4,0
		c-1.4,0-2.7-0.9-3.1-2.2c-0.1-0.2-0.1-0.5-0.2-0.7c-1.1-11,7.5-16.1,12.3-17.3c0.3-0.1,0.6-0.1,0.8-0.1c1.5,0,2.9,1,3.2,2.5
		C87.7,132.9,86.6,134.7,84.8,135.2z"/>
	<path class="st1" d="M152.1,136.3c-12.9,0-23.4,10.5-23.4,23.4c0,12.9,10.5,23.4,23.4,23.4c12.9,0,23.4-10.5,23.4-23.4
		C175.4,146.7,165,136.3,152.1,136.3z M150.2,150c-0.8,0.2-8,2.4-7.2,10.2c0.2,1.8-1.2,3.4-3,3.7c-0.1,0-0.3,0-0.4,0
		c-1.4,0-2.7-0.9-3.1-2.2c-0.1-0.2-0.1-0.5-0.2-0.7c-1.1-11,7.5-16.2,12.3-17.3c0.3-0.1,0.6-0.1,0.8-0.1c1.5,0,2.9,1,3.2,2.5
		C153.1,147.8,152,149.6,150.2,150z"/>
	<path class="st1" d="M131.3,80.1c1.4,2.2,5.6,6.1,10.5,3.8c7.6-3.5,7.2-10.2,16.3-12.1c0,0-8.7-10.5-22.3-5.9c0,0-6.9,2.4-5.9,9.6
		c0,0,5.1-3.2,8.3-4.7c7.2-3.4,14.6-0.7,14.6-0.7c0.9,0.5-0.4,0.5-0.4,0.5c-4.2-0.5-6.7,0.1-7.9,0.6c-6.2,2-10.5,5.1-10.5,5.1l0,0
		c-1,0.5-1.6,0.7-2.5,1.4l-0.8,0.4l-0.4,0.3c-0.4,0.4-3.7,2.8-6,4.8l0.4,2.6C126.5,84.2,130.3,80.8,131.3,80.1z"/>
</g>
</svg>
