<?xml version="1.0" encoding="utf-8"?>
<!-- Generator: Adobe Illustrator 16.0.0, SVG Export Plug-In . SVG Version: 6.00 Build 0)  -->
<!DOCTYPE svg PUBLIC "-//W3C//DTD SVG 1.1//EN" "http://www.w3.org/Graphics/SVG/1.1/DTD/svg11.dtd">
<svg version="1.1" id="Layer_1" xmlns="http://www.w3.org/2000/svg" xmlns:xlink="http://www.w3.org/1999/xlink" x="0px" y="0px"
	 width="242.4px" height="242.4px" viewBox="0 0 242.4 242.4" style="enable-background:new 0 0 242.4 242.4;" xml:space="preserve"
	>
<style type="text/css">
<![CDATA[
	.st0{fill:#FFFFFF;}
	.st1{fill:#3FA2DB;}
]]>
</style>
<g>
	<ellipse class="st0" cx="121.2" cy="121.2" rx="115.4" ry="115.4"/>
	<rect x="96.7" y="179.3" class="st1" width="40.7" height="6.1"/>
	<path class="st1" d="M186,82.1l-0.5-2.1c-0.3-1.1-1.5-1.8-2.8-1.6L84.3,98.4c-1.3,0.3-2.1,1.4-1.8,2.5c0.2,1.1,1.5,1.8,2.8,1.6
		l15.3-2.8c0.7,0.5,1.3,1.2,1.5,2.4c0.6,2.2-0.2,4.7-2.2,7.5c-7.4,10.1-3.6,13.8,1.3,18.5c0.5,0.5,1,0.9,1.4,1.4
		c2.2,2.2,3,6.3,2.2,10.7c-0.9,4.6-3.5,8.3-6.8,9.7c-0.7,0.3-1.1,1.2-0.8,1.9c0.2,0.6,0.8,0.9,1.4,0.9c0.2,0,0.4,0,0.6-0.1
		c4.2-1.7,7.5-6.1,8.6-11.8c1.1-5.4-0.1-10.5-3-13.4c-0.5-0.5-1-1-1.5-1.4c-4.7-4.6-6.9-6.7-0.9-14.6c2.6-3.5,3.5-6.8,2.7-9.9
		c-0.2-0.9-0.6-1.6-1-2.3l6.8-1.2c1.1,0.8,2.5,2.2,3,4.2c0.6,2.2-0.2,4.7-2.2,7.5c-7.4,10.1-3.6,13.8,1.3,18.5
		c0.5,0.5,0.9,0.9,1.4,1.4c2.2,2.2,3,6.3,2.2,10.7c-0.9,4.6-3.5,8.3-6.8,9.7c-0.7,0.3-1.1,1.2-0.8,1.9c0.2,0.6,0.8,0.9,1.4,0.9
		c0.2,0,0.4,0,0.6-0.1c4.2-1.7,7.4-6.1,8.6-11.8c1.1-5.4-0.1-10.5-3-13.4c-0.5-0.5-1-1-1.5-1.4c-4.7-4.6-6.9-6.7-0.9-14.6
		c2.6-3.5,3.5-6.8,2.7-9.9c-0.4-1.7-1.3-3.1-2.2-4.1l5.6-1c2,1.3,5,3.4,5.5,5.5c0.5,2.2-0.2,4.7-2.2,7.5
		c-7.5,10.1-3.6,13.8,1.3,18.5c0.5,0.4,0.9,0.9,1.4,1.4c2.2,2.2,3,6.3,2.2,10.7c-0.9,4.6-3.5,8.3-6.8,9.7c-0.7,0.3-1.1,1.2-0.8,1.9
		c0.2,0.6,0.8,0.9,1.4,0.9c0.2,0,0.4,0,0.6-0.1c4.2-1.7,7.5-6.1,8.6-11.8c1.1-5.4-0.1-10.5-3-13.4c-0.5-0.5-1-1-1.5-1.4
		c-4.7-4.6-6.9-6.7-0.9-14.6c2.6-3.5,3.5-6.8,2.7-9.9c-0.6-2.6-2.4-4.5-3.8-5.6l59.6-10.8C185.4,84.3,186.2,83.2,186,82.1z"/>
	<path class="st1" d="M181.9,65.7c0.4,1.1-0.4,2.3-1.6,2.6L83.2,93.2c-1.2,0.3-2.5-0.3-2.9-1.4c-0.4-1.1,0.4-2.3,1.6-2.6l96.4-26.9
		c1.2-0.3,2.5,0.3,2.9,1.4L181.9,65.7z"/>
	<path class="st1" d="M74.7,143.4c0.2,13.5,7.9,25.3,19.4,32.1h45.1c11.5-6.8,19.2-18.6,19.4-32.1H74.7z"/>
</g>
</svg>
