<?xml version="1.0" encoding="utf-8"?>
<!-- Generator: Adobe Illustrator 16.0.0, SVG Export Plug-In . SVG Version: 6.00 Build 0)  -->
<!DOCTYPE svg PUBLIC "-//W3C//DTD SVG 1.1//EN" "http://www.w3.org/Graphics/SVG/1.1/DTD/svg11.dtd">
<svg version="1.1" id="Layer_1" xmlns="http://www.w3.org/2000/svg" xmlns:xlink="http://www.w3.org/1999/xlink" x="0px" y="0px"
	 width="242.4px" height="242.4px" viewBox="0 0 242.4 242.4" style="enable-background:new 0 0 242.4 242.4;" xml:space="preserve"
	>
<style type="text/css">
<![CDATA[
	.st0{fill-rule:evenodd;clip-rule:evenodd;fill:#FFFFFF;}
	.st1{fill:#40A2DA;}
]]>
</style>
<g>
	<ellipse class="st0" cx="121.2" cy="121.2" rx="115.4" ry="115.4"/>
	<path class="st1" d="M122.9,101c1.8,0,3.5,0.2,5.2,0.4c2.2-3.1,8.3-9,22.8-8c0,0-8.4-6.7-20.8-5.2c2.8-2.3,10.7-7.8,21.2-6.7
		c0,0-8.9-8.2-19.5-4.8c0,0,3.8-7.8,17.4-10.6c0,0-10.1-3.8-20.2,0.8c0,0,2.5-9.2,10-14.3c0,0-8.8-1.3-17.8,8.8
		c-9-10.1-17.8-8.8-17.8-8.8c7.5,5.1,10,14.3,10,14.3c-10.1-4.6-20.2-0.8-20.2-0.8c13.6,2.8,17.4,10.6,17.4,10.6
		c-10.7-3.4-19.5,4.8-19.5,4.8c10.5-1.1,18.3,4.4,21.2,6.7c-12.4-1.6-20.8,5.2-20.8,5.2c14.5-1,20.6,5,22.8,8
		c1.7-0.3,3.4-0.4,5.2-0.4H122.9z"/>
	<path class="st1" d="M130.6,116.4l2.8-8.8l2.7,8.5l6.1-5.5c-3.6-3.3-8.1-5.7-13.1-6.9l-6.4,5.7L130.6,116.4z"/>
	<path class="st1" d="M143.3,127.8l2.7-8.4l2.6,8.2l2.3-2.1c-1.1-5.1-3.6-9.6-7.1-13.3l-9,8.1L143.3,127.8z"/>
	<path class="st1" d="M151.6,135.3v-3.5c0-1.3-0.1-2.5-0.3-3.8l-3.9,3.5L151.6,135.3z"/>
	<path class="st1" d="M126.4,103.3c-1.2-0.1-2.3-0.2-3.5-0.2h-3.5c-1.2,0-2.4,0.1-3.5,0.2l5.2,4.7L126.4,103.3z"/>
	<polygon class="st1" points="110.2,142.3 118.1,149.4 120.9,140.9 123.8,149.8 132.1,142.3 121.2,132.5 	"/>
	<polygon class="st1" points="119.5,153.6 108.6,143.8 97.6,153.6 105.8,160.9 108.6,152.2 111.4,160.9 	"/>
	<polygon class="st1" points="120.9,119.6 123.4,127.5 131.6,120.3 121.2,111 110.8,120.3 118.5,127.1 	"/>
	<polygon class="st1" points="111.6,138.1 119.5,131 109.1,121.7 98.2,131.5 106,138.5 108.8,129.6 	"/>
	<polygon class="st1" points="96.2,141.1 98.9,149.5 106.9,142.3 96.5,133 90.7,138.3 90.7,147.4 93.4,149.8 	"/>
	<polygon class="st1" points="130.6,138 133.4,129.3 136.4,138.5 144.2,131.5 133.2,121.7 122.8,131 	"/>
	<path class="st1" d="M115.9,182.4c1.2,0.1,2.3,0.2,3.5,0.2h3.5c1.2,0,2.4-0.1,3.5-0.2l-5.2-4.7L115.9,182.4z"/>
	<path class="st1" d="M108.6,166.4l-9.1,8.1c2.3,2.2,5,4.1,7.9,5.4l1.4-4.5l1.8,5.7c0.8,0.3,1.6,0.5,2.5,0.7l6.4-5.7L108.6,166.4z"
		/>
	<path class="st1" d="M135.4,164.9l7.9,7.1l2.7-8.3l1.6,4.9c1.7-2.8,2.9-5.9,3.5-9.2l-4.7-4.2L135.4,164.9z"/>
	<path class="st1" d="M151.5,156.7c0.1-0.9,0.1-1.9,0.1-2.9v-3.5l-3.6,3.2L151.5,156.7z"/>
	<path class="st1" d="M122.8,176.2l6.4,5.7c1-0.2,1.9-0.5,2.8-0.8l1.8-5.6l1.4,4.3c2.8-1.3,5.4-3.2,7.6-5.3l-9.1-8.1L122.8,176.2z"
		/>
	<polygon class="st1" points="135.4,142.3 143.4,149.5 146,141.5 148.7,150 151.6,147.4 151.6,138.3 145.8,133 	"/>
	<polygon class="st1" points="144.7,153.6 133.8,143.8 122.8,153.6 131.1,161 133.8,152.6 136.5,161 	"/>
	<path class="st1" d="M99,172l7.9-7.1l-11-9.8l-4.7,4.2c0.6,3.2,1.8,6.2,3.3,8.9l1.6-5L99,172z"/>
	<path class="st1" d="M90.7,150.4v3.5c0,1,0,1.9,0.1,2.9l3.5-3.1L90.7,150.4z"/>
	<path class="st1" d="M91,128c-0.2,1.2-0.3,2.5-0.3,3.8v3.5l4.2-3.7L91,128z"/>
	<polygon class="st1" points="110.2,164.9 118.3,172.2 120.9,164.2 123.6,172.5 132.1,164.9 121.2,155.1 	"/>
	<path class="st1" d="M108.8,107.8l2.8,8.7l7.9-7.1l-6.4-5.7c-5,1.1-9.5,3.5-13.1,6.9l6.1,5.5L108.8,107.8z"/>
	<path class="st1" d="M96.2,119.4l2.7,8.6l8.6-7.7l-9-8.1c-3.4,3.7-5.9,8.2-7.1,13.3l2.2,1.9L96.2,119.4z"/>
</g>
</svg>
