<?xml version="1.0" encoding="utf-8"?>
<!-- Generator: Adobe Illustrator 16.0.0, SVG Export Plug-In . SVG Version: 6.00 Build 0)  -->
<!DOCTYPE svg PUBLIC "-//W3C//DTD SVG 1.1//EN" "http://www.w3.org/Graphics/SVG/1.1/DTD/svg11.dtd">
<svg version="1.1" id="Layer_1" xmlns="http://www.w3.org/2000/svg" xmlns:xlink="http://www.w3.org/1999/xlink" x="0px" y="0px"
	 width="242.4px" height="242.4px" viewBox="0 0 242.4 242.4" style="enable-background:new 0 0 242.4 242.4;" xml:space="preserve"
	>
<style type="text/css">
<![CDATA[
	.st0{fill-rule:evenodd;clip-rule:evenodd;fill:#FFFFFF;}
	.st1{fill:#40A2DA;}
]]>
</style>
<g>
	<ellipse class="st0" cx="121.2" cy="121.2" rx="115.4" ry="115.4"/>
	<path class="st1" d="M159.3,94c0.7-0.1,1.3-0.1,2-0.1c1.9,0,3.8,0.4,5.5,1c0.4-1,0.6-2.2,0.6-3.4c0-5.1-4.1-9.2-9.2-9.2
		c-1.5,0-3,0.4-4.3,1.1c-0.1,0.7-0.3,1.5-0.6,2.2C156.2,87.6,158.3,90.6,159.3,94z"/>
	<path class="st1" d="M111.4,77.4c2.2-2.2,5.2-3.8,8.5-4.3c-1.2-3.7-4.7-6.5-8.8-6.5c-2.9,0-5.5,1.4-7.2,3.5
		C107.1,71.7,109.8,74.2,111.4,77.4z"/>
	<path class="st1" d="M137.2,84.4c2.1-1.1,4.6-1.8,7.1-1.8c1.1,0,2.2,0.1,3.2,0.3c0.2-0.8,0.4-1.7,0.4-2.6c0-5.1-4.1-9.2-9.2-9.2
		c-3.3,0-6.2,1.7-7.8,4.3C134,77.7,136.3,80.8,137.2,84.4z"/>
	<path class="st1" d="M74.2,95c1.6-3.5,4.5-6.4,8.1-7.9c-0.2-0.9-0.3-1.9-0.3-2.9c0-1.7,0.3-3.3,0.8-4.9c-0.8-0.2-1.6-0.3-2.5-0.3
		c-5.1,0-9.2,4.1-9.2,9.2C71.2,90.9,72.4,93.4,74.2,95z"/>
	<path class="st1" d="M135.1,110.5c-2.7-2.1-4.8-5-5.7-8.4c-1.9,1-4,1.6-6.3,1.7c-0.4,3.8-2.2,7.2-4.8,9.7c1.6,2.6,4.5,4.3,7.8,4.3
		C130.6,117.9,134.3,114.7,135.1,110.5z"/>
	<path class="st1" d="M146.4,113.4c-0.7,0.1-1.4,0.1-2,0.1c-0.8,0-1.6-0.1-2.3-0.2c-0.1,0.4-0.1,0.8-0.1,1.2c0,2.1,0.7,4,1.9,5.5
		c2.1,0,4.2-0.1,6.2-0.3C148.3,118.1,147.1,115.9,146.4,113.4z"/>
	<path class="st1" d="M122.3,79.2c-4.8,0-8.8,3.8-9.2,8.5c4.4,1.7,7.9,5.3,9.4,9.8c2.8-0.1,5.3-1.4,6.9-3.4c0.4-1.5,1.1-3,1.9-4.3
		c0.1-0.5,0.1-0.9,0.1-1.4C131.5,83.3,127.4,79.2,122.3,79.2z"/>
	<path class="st1" d="M135.2,98.1c0,5.1,4.1,9.2,9.2,9.2c0.6,0,1.1-0.1,1.6-0.2c0.7-4.7,3.4-8.7,7.3-11c-0.9-4.1-4.6-7.2-9-7.2
		C139.3,88.9,135.2,93.1,135.2,98.1z"/>
	<path class="st1" d="M161.3,100.2c-5.1,0-9.2,4.1-9.2,9.2c0,4.7,3.5,8.5,8,9.1c2.7-0.6,5.1-1.3,7.3-2.2c1.9-1.7,3.1-4.1,3.1-6.9
		C170.5,104.3,166.4,100.2,161.3,100.2z"/>
	<path class="st1" d="M88.4,84.3c0,0.6,0.1,1.2,0.2,1.7c3.8,0.1,7.3,1.5,10,3.9c2.2-1.7,4.9-2.7,7.8-3c0.2-0.8,0.4-1.7,0.4-2.6
		c0-5.1-4.1-9.2-9.2-9.2S88.4,79.2,88.4,84.3z"/>
	<path class="st1" d="M92.3,102.2c0-2.8,0.7-5.4,2.1-7.7c-1.6-1.4-3.7-2.3-6.1-2.3c-5.1,0-9.2,4.1-9.2,9.2c0,0.9,0.1,1.8,0.4,2.6
		c1.9,1.1,3.9,2,6.1,2.8c2.4,0.9,4.9,1.7,7.2,2.5c0.3-0.2,0.6-0.4,1-0.6C92.9,106.8,92.3,104.6,92.3,102.2z"/>
	<path class="st1" d="M98.6,102.2c0,5.1,4.1,9.2,9.2,9.2c5.1,0,9.2-4.1,9.2-9.2c0-5.1-4.1-9.2-9.2-9.2
		C102.7,93.1,98.6,97.2,98.6,102.2z"/>
	<path class="st1" d="M142.3,126.4c-13.6,0-35-5-58.8-13.7c-9.3-3.4-16.5-9.4-21-14.1c0,12.1,0,43.8,0,44.8c1,2.1,6.7,12,26.3,17.9
		c20.9,6.3,41.4,11.8,62.5,10.5c20.1-1.2,27.2-10.7,28.7-13.1c0-1.3,0-31.5,0-42.8C171.7,122.9,159.1,126.5,142.3,126.4z"/>
</g>
</svg>
