<?xml version="1.0" encoding="utf-8"?>
<!-- Generator: Adobe Illustrator 16.0.0, SVG Export Plug-In . SVG Version: 6.00 Build 0)  -->
<!DOCTYPE svg PUBLIC "-//W3C//DTD SVG 1.1//EN" "http://www.w3.org/Graphics/SVG/1.1/DTD/svg11.dtd">
<svg version="1.1" id="Layer_1" xmlns="http://www.w3.org/2000/svg" xmlns:xlink="http://www.w3.org/1999/xlink" x="0px" y="0px"
	 width="242.4px" height="242.4px" viewBox="0 0 242.4 242.4" style="enable-background:new 0 0 242.4 242.4;" xml:space="preserve"
	>
<style type="text/css">
<![CDATA[
	.st0{fill-rule:evenodd;clip-rule:evenodd;fill:#FFFFFF;}
	.st1{fill:#3FA2DB;}
]]>
</style>
<g>
	<circle class="st0" cx="121.2" cy="121.2" r="115.4"/>
	<path class="st1" d="M124.2,137c-23.3-2.8-47.6-1.7-47.8-1.7l-0.1,0l-0.1,0c-0.7,0-1.4-0.1-2-0.2c7.7,26,56.8,20.6,65.7,17.7
		c14-4.7,16-16.1,16-16.1l-0.1,0C147.4,138.3,136.7,138.4,124.2,137z"/>
	<path class="st1" d="M62.4,112.3c5.4-1.3,10.8-2.3,16.1-3.1L92.2,96c-1.5,0.1-2.9,0.3-4.4,0.5C72.5,98.2,64.4,105.3,62.4,112.3z"/>
	<path class="st1" d="M170.3,118.4c-0.1-1.2-0.4-2.3-0.8-3.5c-1.3-3.1-4.9-8.2-15-12.2c-3.8,2.7-9.3,6.5-12.5,8.7
		C154.8,113.8,164.7,116.6,170.3,118.4z"/>
	<path class="st1" d="M135.3,110.3l13.6-9.5c-1.9-0.5-3.9-1-6.2-1.5c-6.1-1.2-11.6-2.1-16.5-2.8c-3.2,2.9-8.9,8.2-12.5,11.4
		C121.6,108.5,128.9,109.3,135.3,110.3z"/>
	<path class="st1" d="M141.7,116.2c2.7,4.8,7.2,12.9,9.1,16.4c1.3-0.2,2.7-0.4,3.9-0.6c6.9-1.4,11.7-3.8,13.9-7.1
		c0.4-0.5,0.7-1.1,0.9-1.7C164.4,121.5,154.4,118.6,141.7,116.2z"/>
	<path class="st1" d="M86.2,108.4c7.1-0.6,14.1-0.8,20.8-0.6l13-11.9c-7.8-0.7-14.3-0.8-20.3-0.5C98.8,96.2,90.6,104.2,86.2,108.4z"
		/>
	<path class="st1" d="M106.5,112.5c-6.6-0.1-13.6,0-20.7,0.7c3.6,5,10.7,14.7,12.5,17.3c6.2,0.2,13.2,0.5,20.4,1.2L106.5,112.5z"/>
	<path class="st1" d="M92.4,130.3l-12-16.6c-6.1,0.8-12.2,1.9-18.3,3.5c0,0.2,0.1,0.4,0.1,0.7c1,5.3,5.1,12,14.1,12.6
		C77.3,130.4,83.6,130.2,92.4,130.3z"/>
	<path class="st1" d="M135.7,115.2c-6.8-1.1-14.8-2-23.4-2.5c3.2,5,10.4,16.3,12.5,19.6c7.8,0.9,14.7,1.2,20.8,0.8L135.7,115.2z"/>
	<path class="st1" d="M175.9,120c2.8-0.4,8.2-1.6,14.6-1.2c6.7,0.4,13.9,1.9,13.1,7.1c-0.8,5.3-6.5,4.9-10.3,3.8
		c0,0,8.4,3.6,5.2,9.2c-2,3.4-7.7,3-14.3-2.3c-7.2-5.7-10.1-10.8-10.1-10.8S175.3,123.4,175.9,120z"/>
</g>
</svg>
